<svg width="823" height="122" viewBox="0 0 823 122" fill="none" xmlns="http://www.w3.org/2000/svg">
<g style="mix-blend-mode:overlay">
<line x1="8.12273" y1="3.50215" x2="65.1227" y2="5.50215" stroke="black" stroke-width="7"/>
</g>
<line x1="12.9694" y1="2.55216" x2="4.96942" y2="74.5522" stroke="black" stroke-width="10"/>
<line x1="68.4608" y1="2.52238" x2="60.4608" y2="55.5224" stroke="black" stroke-width="7"/>
<line x1="4" y1="70.5" x2="22" y2="70.5" stroke="black" stroke-width="7"/>
<line x1="20.4893" y1="65.2737" x2="16.4893" y2="116.274" stroke="black" stroke-width="7"/>
<line x1="56.9143" y1="53.0012" x2="91.9143" y2="52.0012" stroke="black" stroke-width="6"/>
<line x1="89.365" y1="52.58" x2="17.365" y2="118.58" stroke="black" stroke-width="7"/>
<path d="M167.659 50.4773H150.614C150.386 48.7273 149.92 47.1477 149.216 45.7386C148.511 44.3295 147.58 43.125 146.42 42.125C145.261 41.125 143.886 40.3636 142.295 39.8409C140.727 39.2955 138.989 39.0227 137.08 39.0227C133.693 39.0227 130.773 39.8523 128.318 41.5114C125.886 43.1705 124.011 45.5682 122.693 48.7045C121.398 51.8409 120.75 55.6364 120.75 60.0909C120.75 64.7273 121.409 68.6136 122.727 71.75C124.068 74.8636 125.943 77.2159 128.352 78.8068C130.784 80.375 133.659 81.1591 136.977 81.1591C138.841 81.1591 140.534 80.9205 142.057 80.4432C143.602 79.9659 144.955 79.2727 146.114 78.3636C147.295 77.4318 148.261 76.3068 149.011 74.9886C149.784 73.6477 150.318 72.1364 150.614 70.4545L167.659 70.5568C167.364 73.6477 166.466 76.6932 164.966 79.6932C163.489 82.6932 161.455 85.4318 158.864 87.9091C156.273 90.3636 153.114 92.3182 149.386 93.7727C145.682 95.2273 141.432 95.9545 136.636 95.9545C130.318 95.9545 124.659 94.5682 119.659 91.7955C114.682 89 110.75 84.9318 107.864 79.5909C104.977 74.25 103.534 67.75 103.534 60.0909C103.534 52.4091 105 45.8977 107.932 40.5568C110.864 35.2159 114.83 31.1591 119.83 28.3864C124.83 25.6136 130.432 24.2273 136.636 24.2273C140.864 24.2273 144.773 24.8182 148.364 26C151.955 27.1591 155.114 28.8636 157.841 31.1136C160.568 33.3409 162.784 36.0795 164.489 39.3295C166.193 42.5795 167.25 46.2955 167.659 50.4773ZM219.554 25.1818H236.395V70.2159C236.395 75.4205 235.156 79.9545 232.679 83.8182C230.202 87.6591 226.747 90.6364 222.315 92.75C217.884 94.8409 212.736 95.8864 206.872 95.8864C200.94 95.8864 195.759 94.8409 191.327 92.75C186.895 90.6364 183.452 87.6591 180.997 83.8182C178.543 79.9545 177.315 75.4205 177.315 70.2159V25.1818H194.19V68.75C194.19 71.1591 194.713 73.3068 195.759 75.1932C196.827 77.0795 198.315 78.5568 200.224 79.625C202.134 80.6932 204.349 81.2273 206.872 81.2273C209.395 81.2273 211.599 80.6932 213.486 79.625C215.395 78.5568 216.884 77.0795 217.952 75.1932C219.02 73.3068 219.554 71.1591 219.554 68.75V25.1818ZM246.972 95V25.1818H275.812C281.04 25.1818 285.551 26.125 289.347 28.0114C293.165 29.875 296.108 32.5568 298.176 36.0568C300.244 39.5341 301.278 43.6591 301.278 48.4318C301.278 53.2727 300.222 57.3864 298.108 60.7727C295.994 64.1364 292.994 66.7045 289.108 68.4773C285.222 70.2273 280.619 71.1023 275.301 71.1023H257.062V57.8068H272.165C274.71 57.8068 276.835 57.4773 278.54 56.8182C280.267 56.1364 281.574 55.1136 282.46 53.75C283.347 52.3636 283.79 50.5909 283.79 48.4318C283.79 46.2727 283.347 44.4886 282.46 43.0795C281.574 41.6477 280.267 40.5795 278.54 39.875C276.813 39.1477 274.688 38.7841 272.165 38.7841H263.847V95H246.972ZM286.278 63.0909L303.665 95H285.256L268.21 63.0909H286.278ZM310.534 95V25.1818H339.375C344.602 25.1818 349.114 26.125 352.909 28.0114C356.727 29.875 359.67 32.5568 361.739 36.0568C363.807 39.5341 364.841 43.6591 364.841 48.4318C364.841 53.2727 363.784 57.3864 361.67 60.7727C359.557 64.1364 356.557 66.7045 352.67 68.4773C348.784 70.2273 344.182 71.1023 338.864 71.1023H320.625V57.8068H335.727C338.273 57.8068 340.398 57.4773 342.102 56.8182C343.83 56.1364 345.136 55.1136 346.023 53.75C346.909 52.3636 347.352 50.5909 347.352 48.4318C347.352 46.2727 346.909 44.4886 346.023 43.0795C345.136 41.6477 343.83 40.5795 342.102 39.875C340.375 39.1477 338.25 38.7841 335.727 38.7841H327.409V95H310.534ZM349.841 63.0909L367.227 95H348.818L331.773 63.0909H349.841ZM374.097 95V25.1818H422.778V38.8864H390.972V53.2045H420.29V66.9432H390.972V81.2955H422.778V95H374.097ZM492.767 25.1818V95H478.449L450.665 54.7045H450.222V95H433.347V25.1818H447.869L475.347 65.4091H475.926V25.1818H492.767ZM501.094 38.8864V25.1818H560.105V38.8864H538.935V95H522.298V38.8864H501.094ZM568.347 95V25.1818H597.46C602.688 25.1818 607.063 25.9205 610.585 27.3977C614.131 28.875 616.79 30.9432 618.562 33.6023C620.358 36.2614 621.256 39.3409 621.256 42.8409C621.256 45.5 620.699 47.875 619.585 49.9659C618.472 52.0341 616.938 53.75 614.983 55.1136C613.028 56.4773 610.767 57.4318 608.199 57.9773V58.6591C611.017 58.7955 613.619 59.5568 616.006 60.9432C618.415 62.3295 620.347 64.2614 621.801 66.7386C623.256 69.1932 623.983 72.1023 623.983 75.4659C623.983 79.2159 623.028 82.5682 621.119 85.5227C619.21 88.4545 616.449 90.7727 612.835 92.4773C609.222 94.1591 604.835 95 599.676 95H568.347ZM585.222 81.3977H595.653C599.313 81.3977 602.006 80.7045 603.733 79.3182C605.483 77.9318 606.358 76 606.358 73.5227C606.358 71.7273 605.938 70.1818 605.097 68.8864C604.256 67.5682 603.063 66.5568 601.517 65.8523C599.972 65.125 598.119 64.7614 595.96 64.7614H585.222V81.3977ZM585.222 53.8864H594.562C596.403 53.8864 598.04 53.5795 599.472 52.9659C600.903 52.3523 602.017 51.4659 602.812 50.3068C603.631 49.1477 604.04 47.75 604.04 46.1136C604.04 43.7727 603.21 41.9318 601.551 40.5909C599.892 39.25 597.653 38.5795 594.835 38.5795H585.222V53.8864ZM674.335 25.1818H691.176V70.2159C691.176 75.4205 689.938 79.9545 687.46 83.8182C684.983 87.6591 681.528 90.6364 677.097 92.75C672.665 94.8409 667.517 95.8864 661.653 95.8864C655.722 95.8864 650.54 94.8409 646.108 92.75C641.676 90.6364 638.233 87.6591 635.778 83.8182C633.324 79.9545 632.097 75.4205 632.097 70.2159V25.1818H648.972V68.75C648.972 71.1591 649.494 73.3068 650.54 75.1932C651.608 77.0795 653.097 78.5568 655.006 79.625C656.915 80.6932 659.131 81.2273 661.653 81.2273C664.176 81.2273 666.381 80.6932 668.267 79.625C670.176 78.5568 671.665 77.0795 672.733 75.1932C673.801 73.3068 674.335 71.1591 674.335 68.75V25.1818ZM701.514 95V85.3864L735.435 38.8864H701.548V25.1818H756.776V34.7955L722.855 81.2955H756.741V95H701.514ZM766.858 95V85.3864L800.778 38.8864H766.892V25.1818H822.119V34.7955L788.199 81.2955H822.085V95H766.858Z" fill="black"/>
</svg>
