<svg width="301" height="188" viewBox="0 0 301 188" fill="none" xmlns="http://www.w3.org/2000/svg">
<g style="mix-blend-mode:overlay">
<line x1="120" y1="0.5" x2="193" y2="0.5" stroke="black"/>
</g>
<line x1="120.494" y1="1.07879" x2="105.494" y2="95.0788" stroke="black"/>
<line x1="193.476" y1="1.15454" x2="167.476" y2="81.1545" stroke="black"/>
<line x1="105" y1="94.5" x2="141" y2="94.5" stroke="black"/>
<line x1="127.454" y1="148.21" x2="109.454" y2="187.21" stroke="black"/>
<line x1="167.093" y1="80.5087" x2="204.093" y2="87.5087" stroke="black"/>
<line x1="157.334" y1="144.372" x2="109.334" y2="187.372" stroke="black"/>
<path d="M27.608 129.449H20.5057C20.411 128.72 20.2169 128.062 19.9233 127.474C19.6297 126.887 19.2415 126.385 18.7585 125.969C18.2756 125.552 17.7027 125.235 17.0398 125.017C16.3864 124.79 15.6619 124.676 14.8665 124.676C13.4555 124.676 12.2386 125.022 11.2159 125.713C10.2027 126.404 9.4214 127.403 8.87216 128.71C8.33239 130.017 8.0625 131.598 8.0625 133.455C8.0625 135.386 8.33712 137.006 8.88636 138.312C9.44508 139.61 10.2263 140.59 11.2301 141.253C12.2434 141.906 13.4413 142.233 14.8239 142.233C15.6004 142.233 16.3059 142.134 16.9403 141.935C17.5843 141.736 18.1477 141.447 18.6307 141.068C19.1231 140.68 19.5256 140.211 19.8381 139.662C20.16 139.103 20.3826 138.473 20.5057 137.773L27.608 137.815C27.4848 139.103 27.1108 140.372 26.4858 141.622C25.8703 142.872 25.0227 144.013 23.9432 145.045C22.8636 146.068 21.5473 146.883 19.9943 147.489C18.4508 148.095 16.6799 148.398 14.6818 148.398C12.0492 148.398 9.69129 147.82 7.60795 146.665C5.53409 145.5 3.89583 143.805 2.69318 141.58C1.49053 139.354 0.889205 136.646 0.889205 133.455C0.889205 130.254 1.5 127.541 2.72159 125.315C3.94318 123.09 5.59564 121.4 7.67898 120.244C9.76231 119.089 12.0966 118.511 14.6818 118.511C16.4432 118.511 18.072 118.758 19.5682 119.25C21.0644 119.733 22.3807 120.443 23.517 121.381C24.6534 122.309 25.5767 123.45 26.2869 124.804C26.9972 126.158 27.4375 127.706 27.608 129.449ZM49.2308 118.909H56.2479V137.673C56.2479 139.842 55.7318 141.731 54.6996 143.341C53.6674 144.941 52.228 146.182 50.3814 147.062C48.5348 147.934 46.3899 148.369 43.9467 148.369C41.4751 148.369 39.3161 147.934 37.4695 147.062C35.6229 146.182 34.1882 144.941 33.1655 143.341C32.1428 141.731 31.6314 139.842 31.6314 137.673V118.909H38.6626V137.062C38.6626 138.066 38.8804 138.961 39.3161 139.747C39.7611 140.533 40.3814 141.149 41.1768 141.594C41.9723 142.039 42.8956 142.261 43.9467 142.261C44.9979 142.261 45.9164 142.039 46.7024 141.594C47.4979 141.149 48.1181 140.533 48.5632 139.747C49.0083 138.961 49.2308 138.066 49.2308 137.062V118.909ZM60.6548 148V118.909H72.6719C74.8499 118.909 76.7296 119.302 78.3111 120.088C79.902 120.865 81.1283 121.982 81.9901 123.44C82.8518 124.889 83.2827 126.608 83.2827 128.597C83.2827 130.614 82.8423 132.328 81.9616 133.739C81.081 135.14 79.831 136.21 78.2116 136.949C76.5923 137.678 74.6747 138.043 72.4588 138.043H64.8594V132.503H71.152C72.2126 132.503 73.098 132.366 73.8082 132.091C74.5279 131.807 75.0724 131.381 75.4418 130.812C75.8111 130.235 75.9957 129.496 75.9957 128.597C75.9957 127.697 75.8111 126.954 75.4418 126.366C75.0724 125.77 74.5279 125.325 73.8082 125.031C73.0885 124.728 72.2031 124.577 71.152 124.577H67.6861V148H60.6548ZM77.0327 134.705L84.277 148H76.6065L69.5043 134.705H77.0327ZM87.1392 148V118.909H99.1562C101.334 118.909 103.214 119.302 104.795 120.088C106.386 120.865 107.613 121.982 108.474 123.44C109.336 124.889 109.767 126.608 109.767 128.597C109.767 130.614 109.327 132.328 108.446 133.739C107.565 135.14 106.315 136.21 104.696 136.949C103.077 137.678 101.159 138.043 98.9432 138.043H91.3438V132.503H97.6364C98.697 132.503 99.5824 132.366 100.293 132.091C101.012 131.807 101.557 131.381 101.926 130.812C102.295 130.235 102.48 129.496 102.48 128.597C102.48 127.697 102.295 126.954 101.926 126.366C101.557 125.77 101.012 125.325 100.293 125.031C99.5729 124.728 98.6875 124.577 97.6364 124.577H94.1705V148H87.1392ZM103.517 134.705L110.761 148H103.091L95.9886 134.705H103.517ZM113.624 148V118.909H133.908V124.619H120.655V130.585H132.871V136.31H120.655V142.29H133.908V148H113.624ZM163.07 118.909V148H157.104L145.527 131.21H145.342V148H138.311V118.909H144.362L155.811 135.67H156.053V118.909H163.07ZM166.539 124.619V118.909H191.127V124.619H182.306V148H175.374V124.619H166.539ZM194.561 148V118.909H206.692C208.87 118.909 210.693 119.217 212.161 119.832C213.638 120.448 214.746 121.31 215.484 122.418C216.232 123.526 216.607 124.809 216.607 126.267C216.607 127.375 216.375 128.365 215.911 129.236C215.446 130.098 214.807 130.812 213.993 131.381C213.179 131.949 212.236 132.347 211.166 132.574V132.858C212.34 132.915 213.425 133.232 214.419 133.81C215.423 134.387 216.228 135.192 216.834 136.224C217.44 137.247 217.743 138.459 217.743 139.861C217.743 141.423 217.345 142.82 216.55 144.051C215.754 145.273 214.604 146.239 213.098 146.949C211.592 147.65 209.765 148 207.615 148H194.561ZM201.592 142.332H205.939C207.464 142.332 208.586 142.044 209.305 141.466C210.035 140.888 210.399 140.083 210.399 139.051C210.399 138.303 210.224 137.659 209.874 137.119C209.523 136.57 209.026 136.149 208.382 135.855C207.738 135.552 206.966 135.401 206.067 135.401H201.592V142.332ZM201.592 130.869H205.484C206.251 130.869 206.933 130.741 207.53 130.486C208.126 130.23 208.59 129.861 208.922 129.378C209.263 128.895 209.433 128.312 209.433 127.631C209.433 126.655 209.088 125.888 208.396 125.33C207.705 124.771 206.772 124.491 205.598 124.491H201.592V130.869ZM238.723 118.909H245.74V137.673C245.74 139.842 245.224 141.731 244.192 143.341C243.16 144.941 241.72 146.182 239.874 147.062C238.027 147.934 235.882 148.369 233.439 148.369C230.967 148.369 228.808 147.934 226.962 147.062C225.115 146.182 223.68 144.941 222.658 143.341C221.635 141.731 221.124 139.842 221.124 137.673V118.909H228.155V137.062C228.155 138.066 228.373 138.961 228.808 139.747C229.253 140.533 229.874 141.149 230.669 141.594C231.464 142.039 232.388 142.261 233.439 142.261C234.49 142.261 235.409 142.039 236.195 141.594C236.99 141.149 237.61 140.533 238.055 139.747C238.5 138.961 238.723 138.066 238.723 137.062V118.909ZM250.048 148V143.994L264.181 124.619H250.062V118.909H273.073V122.915L258.94 142.29H273.059V148H250.048ZM277.274 148V143.994L291.408 124.619H277.288V118.909H300.3V122.915L286.166 142.29H300.286V148H277.274Z" fill="black"/>
<line x1="204.395" y1="88.3061" x2="180.395" y2="119.306" stroke="black"/>
<line x1="141.474" y1="95.1581" x2="133.474" y2="119.158" stroke="black"/>
</svg>
