<svg width="341" height="243" viewBox="0 0 341 243" fill="none" xmlns="http://www.w3.org/2000/svg">
<ellipse cx="170.5" cy="121.5" rx="170.5" ry="121.5" fill="#D9D9D9"/>
<g style="mix-blend-mode:overlay">
<line x1="139" y1="20.5" x2="212" y2="20.5" stroke="black"/>
</g>
<line x1="139.494" y1="21.0788" x2="124.494" y2="115.079" stroke="black"/>
<line x1="212.476" y1="21.1545" x2="186.476" y2="101.155" stroke="black"/>
<line x1="124" y1="114.5" x2="160" y2="114.5" stroke="black"/>
<line x1="146.454" y1="168.21" x2="128.454" y2="207.21" stroke="black"/>
<line x1="186.093" y1="100.509" x2="223.093" y2="107.509" stroke="black"/>
<line x1="176.334" y1="164.372" x2="128.334" y2="207.372" stroke="black"/>
<path d="M46.608 149.449H39.5057C39.411 148.72 39.2169 148.062 38.9233 147.474C38.6297 146.887 38.2415 146.385 37.7585 145.969C37.2756 145.552 36.7027 145.235 36.0398 145.017C35.3864 144.79 34.6619 144.676 33.8665 144.676C32.4555 144.676 31.2386 145.022 30.2159 145.713C29.2027 146.404 28.4214 147.403 27.8722 148.71C27.3324 150.017 27.0625 151.598 27.0625 153.455C27.0625 155.386 27.3371 157.006 27.8864 158.312C28.4451 159.61 29.2263 160.59 30.2301 161.253C31.2434 161.906 32.4413 162.233 33.8239 162.233C34.6004 162.233 35.3059 162.134 35.9403 161.935C36.5843 161.736 37.1477 161.447 37.6307 161.068C38.1231 160.68 38.5256 160.211 38.8381 159.662C39.16 159.103 39.3826 158.473 39.5057 157.773L46.608 157.815C46.4848 159.103 46.1108 160.372 45.4858 161.622C44.8703 162.872 44.0227 164.013 42.9432 165.045C41.8636 166.068 40.5473 166.883 38.9943 167.489C37.4508 168.095 35.6799 168.398 33.6818 168.398C31.0492 168.398 28.6913 167.82 26.608 166.665C24.5341 165.5 22.8958 163.805 21.6932 161.58C20.4905 159.354 19.8892 156.646 19.8892 153.455C19.8892 150.254 20.5 147.541 21.7216 145.315C22.9432 143.09 24.5956 141.4 26.679 140.244C28.7623 139.089 31.0966 138.511 33.6818 138.511C35.4432 138.511 37.072 138.758 38.5682 139.25C40.0644 139.733 41.3807 140.443 42.517 141.381C43.6534 142.309 44.5767 143.45 45.2869 144.804C45.9972 146.158 46.4375 147.706 46.608 149.449ZM68.2308 138.909H75.2479V157.673C75.2479 159.842 74.7318 161.731 73.6996 163.341C72.6674 164.941 71.228 166.182 69.3814 167.062C67.5348 167.934 65.3899 168.369 62.9467 168.369C60.4751 168.369 58.3161 167.934 56.4695 167.062C54.6229 166.182 53.1882 164.941 52.1655 163.341C51.1428 161.731 50.6314 159.842 50.6314 157.673V138.909H57.6626V157.062C57.6626 158.066 57.8804 158.961 58.3161 159.747C58.7611 160.533 59.3814 161.149 60.1768 161.594C60.9723 162.039 61.8956 162.261 62.9467 162.261C63.9979 162.261 64.9164 162.039 65.7024 161.594C66.4979 161.149 67.1181 160.533 67.5632 159.747C68.0083 158.961 68.2308 158.066 68.2308 157.062V138.909ZM79.6548 168V138.909H91.6719C93.8499 138.909 95.7296 139.302 97.3111 140.088C98.902 140.865 100.128 141.982 100.99 143.44C101.852 144.889 102.283 146.608 102.283 148.597C102.283 150.614 101.842 152.328 100.962 153.739C100.081 155.14 98.831 156.21 97.2116 156.949C95.5923 157.678 93.6747 158.043 91.4588 158.043H83.8594V152.503H90.152C91.2126 152.503 92.098 152.366 92.8082 152.091C93.5279 151.807 94.0724 151.381 94.4418 150.812C94.8111 150.235 94.9957 149.496 94.9957 148.597C94.9957 147.697 94.8111 146.954 94.4418 146.366C94.0724 145.77 93.5279 145.325 92.8082 145.031C92.0885 144.728 91.2031 144.577 90.152 144.577H86.6861V168H79.6548ZM96.0327 154.705L103.277 168H95.6065L88.5043 154.705H96.0327ZM106.139 168V138.909H118.156C120.334 138.909 122.214 139.302 123.795 140.088C125.386 140.865 126.613 141.982 127.474 143.44C128.336 144.889 128.767 146.608 128.767 148.597C128.767 150.614 128.327 152.328 127.446 153.739C126.565 155.14 125.315 156.21 123.696 156.949C122.077 157.678 120.159 158.043 117.943 158.043H110.344V152.503H116.636C117.697 152.503 118.582 152.366 119.293 152.091C120.012 151.807 120.557 151.381 120.926 150.812C121.295 150.235 121.48 149.496 121.48 148.597C121.48 147.697 121.295 146.954 120.926 146.366C120.557 145.77 120.012 145.325 119.293 145.031C118.573 144.728 117.688 144.577 116.636 144.577H113.17V168H106.139ZM122.517 154.705L129.761 168H122.091L114.989 154.705H122.517ZM132.624 168V138.909H152.908V144.619H139.655V150.585H151.871V156.31H139.655V162.29H152.908V168H132.624ZM182.07 138.909V168H176.104L164.527 151.21H164.342V168H157.311V138.909H163.362L174.811 155.67H175.053V138.909H182.07ZM185.539 144.619V138.909H210.127V144.619H201.306V168H194.374V144.619H185.539ZM213.561 168V138.909H225.692C227.87 138.909 229.693 139.217 231.161 139.832C232.638 140.448 233.746 141.31 234.484 142.418C235.232 143.526 235.607 144.809 235.607 146.267C235.607 147.375 235.375 148.365 234.911 149.236C234.446 150.098 233.807 150.812 232.993 151.381C232.179 151.949 231.236 152.347 230.166 152.574V152.858C231.34 152.915 232.425 153.232 233.419 153.81C234.423 154.387 235.228 155.192 235.834 156.224C236.44 157.247 236.743 158.459 236.743 159.861C236.743 161.423 236.345 162.82 235.55 164.051C234.754 165.273 233.604 166.239 232.098 166.949C230.592 167.65 228.765 168 226.615 168H213.561ZM220.592 162.332H224.939C226.464 162.332 227.586 162.044 228.305 161.466C229.035 160.888 229.399 160.083 229.399 159.051C229.399 158.303 229.224 157.659 228.874 157.119C228.523 156.57 228.026 156.149 227.382 155.855C226.738 155.552 225.966 155.401 225.067 155.401H220.592V162.332ZM220.592 150.869H224.484C225.251 150.869 225.933 150.741 226.53 150.486C227.126 150.23 227.59 149.861 227.922 149.378C228.263 148.895 228.433 148.312 228.433 147.631C228.433 146.655 228.088 145.888 227.396 145.33C226.705 144.771 225.772 144.491 224.598 144.491H220.592V150.869ZM257.723 138.909H264.74V157.673C264.74 159.842 264.224 161.731 263.192 163.341C262.16 164.941 260.72 166.182 258.874 167.062C257.027 167.934 254.882 168.369 252.439 168.369C249.967 168.369 247.808 167.934 245.962 167.062C244.115 166.182 242.68 164.941 241.658 163.341C240.635 161.731 240.124 159.842 240.124 157.673V138.909H247.155V157.062C247.155 158.066 247.373 158.961 247.808 159.747C248.253 160.533 248.874 161.149 249.669 161.594C250.464 162.039 251.388 162.261 252.439 162.261C253.49 162.261 254.409 162.039 255.195 161.594C255.99 161.149 256.61 160.533 257.055 159.747C257.5 158.961 257.723 158.066 257.723 157.062V138.909ZM269.048 168V163.994L283.181 144.619H269.062V138.909H292.073V142.915L277.94 162.29H292.059V168H269.048ZM296.274 168V163.994L310.408 144.619H296.288V138.909H319.3V142.915L305.166 162.29H319.286V168H296.274Z" fill="black"/>
<line x1="223.395" y1="108.306" x2="199.395" y2="139.306" stroke="black"/>
<line x1="160.474" y1="115.158" x2="152.474" y2="139.158" stroke="black"/>
</svg>
